<svg width="150" height="150" viewBox="0 0 150 150" fill="none" xmlns="http://www.w3.org/2000/svg">
<path d="M75 150C116.421 150 150 116.421 150 75C150 33.5786 116.421 0 75 0C33.5786 0 0 33.5786 0 75C0 116.421 33.5786 150 75 150Z" fill="#F69648"/>
<path d="M75 139.062C110.381 139.062 139.062 110.381 139.062 75C139.062 39.6193 110.381 10.9375 75 10.9375C39.6193 10.9375 10.9375 39.6193 10.9375 75C10.9375 110.381 39.6193 139.062 75 139.062Z" fill="#485369"/>
<path d="M55.4787 78.8879C55.4731 78.8241 55.4675 78.7604 55.4606 78.6973C55.4294 78.4135 55.3875 78.1329 55.3325 77.8566C55.3225 77.8079 55.3106 77.7604 55.3 77.7123C55.2463 77.461 55.1825 77.2135 55.1094 76.9698C55.0956 76.9241 55.0837 76.8785 55.07 76.8329C54.9862 76.5679 54.89 76.3091 54.785 76.0548C54.7612 75.9973 54.7362 75.9404 54.7112 75.8829C54.5994 75.626 54.4806 75.3729 54.3475 75.1279C54.3437 75.121 54.34 75.1148 54.3363 75.1085C54.205 74.8685 54.0613 74.6366 53.9112 74.4091C53.8769 74.3573 53.8431 74.3054 53.8081 74.2548C53.655 74.0323 53.4944 73.8154 53.3237 73.6066C53.2912 73.5673 53.2569 73.5291 53.2244 73.4898C53.0669 73.3029 52.9025 73.1223 52.7319 72.9479C52.6981 72.9135 52.6662 72.8785 52.6325 72.8448C52.4412 72.6554 52.2412 72.4748 52.035 72.3016C51.9862 72.2604 51.9369 72.221 51.8869 72.1804C51.6737 72.0085 51.4563 71.8416 51.2288 71.6879C51.2281 71.6873 51.2275 71.6873 51.2262 71.6866C51.2119 71.6766 51.1962 71.6685 51.1812 71.6585C51.0056 71.541 50.8262 71.4298 50.6425 71.3241V56.1479C50.6737 55.8279 50.6912 55.5041 50.6912 55.1766C50.6912 54.8448 50.6737 54.5173 50.6419 54.1941C50.6419 54.1941 50.6425 54.1941 50.6425 54.1935C50.6425 54.1916 50.6419 54.1898 50.6419 54.1873C50.6319 54.0854 50.6106 53.9866 50.5975 53.886C50.5687 53.6691 50.5412 53.4523 50.4987 53.2404C50.4725 53.1098 50.4356 52.9835 50.4044 52.8541C50.3612 52.6766 50.3206 52.4985 50.2681 52.3248C50.2275 52.1904 50.1769 52.061 50.1312 51.9291C50.0744 51.7666 50.0194 51.6035 49.9544 51.4454C49.9 51.3135 49.8381 51.186 49.7781 51.0573C49.7081 50.906 49.6387 50.7541 49.5612 50.6073C49.4944 50.4804 49.4212 50.3579 49.3494 50.2348C49.2662 50.0929 49.1831 49.951 49.0938 49.8135C49.0156 49.6935 48.9325 49.5779 48.8494 49.4623C48.7537 49.3291 48.6575 49.1979 48.5556 49.0698C48.4669 48.9579 48.3744 48.8498 48.2806 48.7423C48.1737 48.6191 48.065 48.4985 47.9519 48.3804C47.8531 48.2779 47.7525 48.1779 47.6494 48.0791C47.5312 47.966 47.41 47.856 47.2862 47.7491C47.1794 47.6566 47.0712 47.5654 46.96 47.4779C46.8306 47.3754 46.6981 47.2773 46.5637 47.1816C46.4494 47.0998 46.3344 47.0191 46.2162 46.9423C46.0762 46.851 45.9319 46.766 45.7869 46.6816C45.6663 46.6116 45.5462 46.541 45.4225 46.476C45.2712 46.3966 45.1156 46.3248 44.96 46.2535C44.835 46.196 44.7112 46.1366 44.5837 46.0848C44.42 46.0179 44.2519 45.9598 44.0837 45.9016C43.9575 45.8579 43.8331 45.8104 43.7044 45.7716C43.525 45.7179 43.3412 45.6748 43.1575 45.631C43.0338 45.6016 42.9125 45.5666 42.7875 45.5416C42.5812 45.501 42.3706 45.4735 42.16 45.446C42.0525 45.4316 41.9481 45.411 41.8394 45.4004C41.5187 45.3685 41.1938 45.351 40.8644 45.351C40.5525 45.351 40.245 45.3691 39.9406 45.3979C39.8444 45.4066 39.75 45.4216 39.6544 45.4335C39.4456 45.4591 39.2381 45.4898 39.0338 45.5285C38.9275 45.5485 38.8225 45.571 38.7175 45.5941C38.5481 45.6316 38.3806 45.6741 38.2144 45.7204C38.2144 45.7191 38.2144 45.7173 38.2137 45.716C38.1769 45.726 38.1419 45.7404 38.105 45.751C38.0181 45.7766 37.9306 45.801 37.8444 45.8285C37.7381 45.8629 37.6337 45.8998 37.5294 45.9379C37.4575 45.9641 37.3869 45.9923 37.315 46.0198C37.2681 46.0379 37.2206 46.0548 37.1737 46.0741C37.1212 46.0954 37.0669 46.1129 37.0144 46.1354C36.9412 46.1666 36.8719 46.2023 36.8 46.2354C36.7281 46.2679 36.6575 46.3029 36.5863 46.3373C36.4663 46.3954 36.3456 46.451 36.2288 46.5141C36.1763 46.5423 36.1256 46.5729 36.0738 46.6023C36.0113 46.6373 35.9506 46.6748 35.8894 46.7104C35.75 46.7923 35.6125 46.8754 35.4781 46.9641C35.3912 47.021 35.3069 47.081 35.2219 47.1404C35.1444 47.1948 35.0637 47.2448 34.9875 47.3016C34.9881 47.3054 34.9888 47.3091 34.9894 47.3129C34.8869 47.3898 34.7819 47.4635 34.6825 47.5441C34.5825 47.6248 34.4887 47.7123 34.3925 47.7966C34.27 47.9041 34.1475 48.0123 34.0306 48.1254C33.9363 48.2166 33.8456 48.3116 33.755 48.4066C33.6425 48.5248 33.5331 48.6448 33.4269 48.7679C33.3431 48.8648 33.2613 48.9616 33.1813 49.0616C33.0725 49.1979 32.9694 49.3391 32.8675 49.481C32.8006 49.5748 32.7313 49.6666 32.6675 49.7629C32.5363 49.961 32.4144 50.1648 32.2975 50.3723C32.2719 50.4185 32.2419 50.4616 32.2163 50.5085C32.0794 50.7616 31.9556 51.0229 31.8406 51.2885C31.8012 51.3798 31.7681 51.4735 31.7319 51.5654C31.6588 51.7498 31.5888 51.9354 31.5269 52.1254C31.4919 52.2323 31.4606 52.3404 31.4294 52.4491C31.3762 52.6329 31.3287 52.8191 31.2856 53.0073C31.2606 53.1173 31.2362 53.2273 31.215 53.3391C31.1762 53.5416 31.1469 53.7473 31.1212 53.9541C31.1087 54.0523 31.0931 54.1491 31.0838 54.2485C31.075 54.3423 31.07 54.4373 31.0637 54.5316H31.0594V54.6316C31.0494 54.8135 31.0363 54.9941 31.0363 55.1785C31.0363 55.3966 31.0444 55.6123 31.0594 55.826V71.3404C30.885 71.4416 30.7144 71.5485 30.5469 71.6604C30.5325 71.6704 30.5169 71.6785 30.5019 71.6885C30.5013 71.6891 30.5006 71.6891 30.4994 71.6898V71.6891C30.2719 71.8435 30.0537 72.0098 29.8406 72.1823C29.7912 72.2223 29.7419 72.2616 29.6937 72.3023C29.4869 72.476 29.2862 72.6566 29.095 72.8466C29.0619 72.8791 29.0306 72.9141 28.9981 72.9473C28.8256 73.1229 28.6606 73.3054 28.5019 73.4935C28.4694 73.5316 28.4362 73.5685 28.4044 73.6073C28.2331 73.8166 28.0719 74.0341 27.9187 74.2573C27.8844 74.3073 27.8512 74.3585 27.8175 74.4091C27.6662 74.6379 27.5213 74.8716 27.39 75.1135C27.3869 75.1185 27.3838 75.1235 27.3813 75.1291C27.2481 75.3748 27.1288 75.6291 27.0163 75.8866C26.9919 75.9429 26.9675 75.9985 26.9438 76.0554C26.8381 76.3104 26.7419 76.5698 26.6581 76.8354C26.6444 76.8798 26.6325 76.9254 26.6188 76.9698C26.545 77.2148 26.4813 77.4635 26.4269 77.716C26.4169 77.7629 26.405 77.8091 26.395 77.8566C26.34 78.1335 26.2975 78.4141 26.2663 78.6991C26.2594 78.7623 26.2538 78.8254 26.2481 78.8885C26.2213 79.1816 26.2031 79.4779 26.2031 79.7779C26.2031 79.7785 26.2031 79.7791 26.2031 79.7798V84.2623C26.2031 85.4435 27.1606 86.401 28.3419 86.401H30.4988H31.595H50.13H51.2256H53.3825C54.5637 86.401 55.5212 85.4435 55.5212 84.2623V79.7798C55.5212 79.7785 55.5212 79.7773 55.5212 79.776C55.5231 79.4754 55.505 79.1804 55.4787 78.8879Z" fill="#382B73"/>
<path d="M123.75 78.8866C123.744 78.8241 123.739 78.761 123.732 78.6985C123.7 78.4135 123.659 78.1322 123.603 77.8554C123.594 77.8085 123.582 77.7622 123.572 77.716C123.517 77.4629 123.453 77.2135 123.379 76.9685C123.366 76.9241 123.354 76.8791 123.34 76.8354C123.257 76.5697 123.16 76.3104 123.055 76.0554C123.031 75.9985 123.007 75.9422 122.982 75.886C122.87 75.6285 122.751 75.3741 122.618 75.1291C122.615 75.1235 122.611 75.1179 122.608 75.1122C122.477 74.871 122.332 74.6385 122.182 74.4104C122.148 74.3591 122.114 74.3079 122.079 74.2566C121.926 74.0335 121.765 73.8166 121.594 73.6072C121.562 73.5685 121.529 73.5316 121.497 73.4935C121.339 73.3054 121.173 73.1235 121.002 72.9485C120.969 72.9147 120.937 72.8797 120.904 72.8466C120.712 72.6566 120.512 72.476 120.305 72.3029C120.257 72.2622 120.207 72.2229 120.158 72.1829C119.945 72.0104 119.727 71.8441 119.499 71.6897V71.6904C118.304 70.881 116.917 70.3404 115.424 70.1266L115.42 70.1166C115.37 70.1097 115.319 70.1091 115.269 70.1029C115.072 70.0779 114.874 70.0616 114.674 70.0485C114.598 70.0435 114.524 70.0304 114.448 70.0279L114.452 70.016L111.499 68.7435V66.4116C111.471 66.421 111.443 66.4272 111.415 66.436C113.504 65.7647 115.189 64.1979 116.019 62.186C116.145 62.0629 116.261 61.9316 116.38 61.8016C116.447 61.8072 116.513 61.8185 116.582 61.8185C117.906 61.8185 118.98 60.7447 118.98 59.4197C118.98 58.9035 118.814 58.4285 118.536 58.0379C118.811 57.1329 118.962 56.1735 118.962 55.1779C118.962 54.846 118.944 54.5185 118.912 54.1954C118.912 54.1954 118.912 54.1954 118.913 54.1947C118.913 54.1929 118.912 54.191 118.912 54.1891C118.902 54.0841 118.88 53.9829 118.867 53.8791C118.839 53.6654 118.812 53.4516 118.77 53.2422C118.744 53.1097 118.705 52.9822 118.674 52.8516C118.632 52.6754 118.592 52.4985 118.539 52.3266C118.499 52.1916 118.448 52.0616 118.401 51.9291C118.344 51.7672 118.29 51.6047 118.225 51.4472C118.17 51.3154 118.109 51.1879 118.049 51.0585C117.979 50.9072 117.909 50.756 117.832 50.6085C117.765 50.4816 117.692 50.3591 117.62 50.2354C117.537 50.0935 117.454 49.9522 117.364 49.8147C117.286 49.6947 117.202 49.5785 117.119 49.4622C117.024 49.3297 116.928 49.1979 116.826 49.0704C116.737 48.9585 116.645 48.8504 116.552 48.7429C116.445 48.6197 116.335 48.4985 116.223 48.381C116.124 48.2785 116.024 48.1785 115.921 48.0804C115.802 47.9672 115.682 47.8572 115.557 47.7497C115.45 47.6572 115.342 47.5666 115.232 47.4791C115.102 47.376 114.969 47.2779 114.834 47.1816C114.72 47.1004 114.605 47.0197 114.488 46.9429C114.347 46.851 114.202 46.7654 114.057 46.681C113.937 46.611 113.818 46.541 113.695 46.4766C113.543 46.3966 113.387 46.3247 113.23 46.2529C113.106 46.196 112.983 46.1372 112.856 46.0847C112.692 46.0172 112.522 45.9591 112.354 45.901C112.228 45.8572 112.105 45.8104 111.977 45.7722C111.797 45.7179 111.612 45.6754 111.427 45.631C111.305 45.6016 111.184 45.5672 111.06 45.5422C110.853 45.501 110.64 45.4735 110.429 45.446C110.323 45.4322 110.219 45.4116 110.113 45.401C109.792 45.3691 109.467 45.3516 109.137 45.3516C108.825 45.3516 108.518 45.3697 108.213 45.3985C108.117 45.4072 108.024 45.4222 107.929 45.4335C107.719 45.4591 107.512 45.4897 107.306 45.5285C107.2 45.5485 107.096 45.5704 106.992 45.5935C106.822 45.6316 106.654 45.6735 106.488 45.7197C106.488 45.7185 106.488 45.7166 106.487 45.7154C106.45 45.726 106.415 45.7397 106.378 45.751C106.291 45.7766 106.204 45.8004 106.118 45.8285C106.012 45.8629 105.907 45.8997 105.802 45.9379C105.73 45.9641 105.66 45.9922 105.589 46.0197C105.541 46.0385 105.492 46.0554 105.445 46.0747C105.393 46.096 105.34 46.1129 105.289 46.1347C105.215 46.166 105.145 46.2022 105.074 46.2347C105.002 46.2672 104.932 46.3022 104.861 46.3366C104.741 46.3947 104.62 46.451 104.503 46.5135C104.45 46.5416 104.4 46.5722 104.349 46.601C104.287 46.6354 104.227 46.6729 104.165 46.7085C104.026 46.7904 103.887 46.8741 103.752 46.9629C103.666 47.0197 103.582 47.0791 103.497 47.1385C103.419 47.1929 103.338 47.2429 103.262 47.2997C103.262 47.3035 103.264 47.3072 103.264 47.311C103.161 47.3879 103.056 47.4616 102.957 47.5429C102.857 47.6235 102.764 47.7104 102.667 47.7947C102.545 47.9022 102.422 48.0104 102.305 48.1235C102.211 48.2154 102.12 48.3097 102.029 48.4054C101.917 48.5229 101.808 48.6429 101.702 48.766C101.618 48.8629 101.535 48.9604 101.455 49.0604C101.347 49.1966 101.244 49.3372 101.142 49.4791C101.075 49.5729 101.006 49.6654 100.942 49.7616C100.811 49.9597 100.689 50.1635 100.572 50.371C100.546 50.4172 100.517 50.4604 100.491 50.5072C100.354 50.7604 100.23 51.0216 100.115 51.2872C100.076 51.3785 100.043 51.4722 100.007 51.5641C99.9336 51.7485 99.8636 51.9341 99.8017 52.1241C99.7667 52.231 99.7354 52.3391 99.7042 52.4479C99.6511 52.6316 99.603 52.8179 99.5611 53.006C99.5361 53.116 99.5117 53.226 99.4904 53.3379C99.4517 53.541 99.4223 53.746 99.3967 53.9529C99.3842 54.051 99.3686 54.1479 99.3592 54.2472C99.3305 54.5535 99.3123 54.8629 99.3123 55.1772C99.3123 55.4666 99.3304 55.7516 99.3554 56.0341C99.3642 56.1347 99.3748 56.2347 99.3861 56.3347C99.3923 56.3879 99.3955 56.4416 99.4023 56.4947C99.4048 56.4941 99.4073 56.4929 99.4098 56.4922C99.4804 57.021 99.5861 57.5379 99.7373 58.0366C99.4598 58.4279 99.2936 58.9029 99.2936 59.4191C99.2936 60.7435 100.367 61.8179 101.692 61.8179C101.761 61.8179 101.827 61.8066 101.894 61.801C102.013 61.931 102.129 62.0622 102.255 62.1854C102.355 62.4291 102.466 62.6679 102.59 62.8972C102.82 63.3191 103.089 63.7166 103.392 64.0841C103.696 64.4516 104.034 64.7897 104.402 65.0935C104.769 65.3972 105.167 65.666 105.589 65.8954C105.8 66.0097 106.017 66.1147 106.239 66.2091C106.441 66.2941 106.649 66.3685 106.859 66.436C106.831 66.4272 106.802 66.421 106.775 66.4116V67.831V68.7435V69.0029V68.7435L105.298 69.3797L103.821 70.016L103.825 70.0279C103.749 70.0304 103.675 70.0435 103.6 70.0485C103.399 70.0616 103.2 70.0779 103.004 70.1029C102.954 70.1091 102.903 70.1097 102.853 70.1166L102.849 70.1266C101.356 70.3404 99.9686 70.881 98.7736 71.6904C98.5461 71.8447 98.3279 72.011 98.1142 72.1835C98.0648 72.2235 98.0161 72.2629 97.9673 72.3035C97.7604 72.4772 97.5604 72.6579 97.3686 72.8472C97.3348 72.8804 97.3036 72.9154 97.2704 72.9491C97.0986 73.1247 96.9336 73.3066 96.7748 73.4941C96.7423 73.5322 96.7092 73.5691 96.6773 73.6079C96.5061 73.8172 96.3448 74.0347 96.1917 74.2579C96.1573 74.3085 96.1236 74.3591 96.0898 74.4104C95.9392 74.6391 95.7942 74.8716 95.663 75.1135C95.6598 75.1191 95.6567 75.1241 95.6536 75.1297C95.5205 75.3754 95.4011 75.6291 95.2892 75.8866C95.2642 75.9435 95.2398 75.9997 95.2161 76.0566C95.1104 76.3116 95.0142 76.571 94.9305 76.8366C94.9167 76.8804 94.9048 76.9254 94.8917 76.9697C94.8179 77.2154 94.7542 77.4641 94.6992 77.7173C94.6892 77.7641 94.6773 77.8104 94.6679 77.8579C94.6123 78.1347 94.5704 78.416 94.5392 78.701C94.5323 78.7635 94.5267 78.826 94.5211 78.8891C94.4942 79.1835 94.4761 79.4804 94.4761 79.7816V84.2641C94.4761 85.4454 95.4336 86.4029 96.6148 86.4029H121.656C122.837 86.4029 123.795 85.4454 123.795 84.2641V79.7816C123.795 79.4779 123.776 79.181 123.75 78.8866ZM108.223 66.7322C108.064 66.7129 107.907 66.6897 107.752 66.6604C107.907 66.6891 108.065 66.7129 108.223 66.7322ZM107.515 66.6116C107.364 66.5779 107.215 66.5391 107.068 66.4966C107.215 66.5391 107.364 66.5779 107.515 66.6116ZM108.437 66.7585C108.667 66.7797 108.9 66.7935 109.135 66.7935C109.371 66.7935 109.604 66.7797 109.834 66.7585C109.604 66.7797 109.371 66.7941 109.135 66.7941C108.9 66.7935 108.667 66.7797 108.437 66.7585ZM110.469 66.6704C110.33 66.6954 110.189 66.7147 110.048 66.7316C110.207 66.7122 110.364 66.6891 110.519 66.6597C110.502 66.6635 110.485 66.6672 110.469 66.6704ZM111.498 69.6247V70.0154V69.6247ZM110.756 66.6116C110.907 66.5779 111.055 66.5391 111.203 66.4966C111.055 66.5391 110.907 66.5779 110.756 66.6116Z" fill="#382B73"/>
<path d="M89.5525 78.8975C89.5463 78.8325 89.5413 78.7681 89.5338 78.7038C89.5025 78.4213 89.4607 78.1419 89.4063 77.8669C89.3963 77.8169 89.3838 77.7681 89.3732 77.7181C89.3194 77.4694 89.2563 77.225 89.1844 76.9838C89.17 76.9363 89.1582 76.8881 89.1432 76.8413C89.06 76.5788 88.9644 76.3213 88.86 76.0688C88.835 76.0088 88.8094 75.95 88.7838 75.8907C88.6732 75.6363 88.5557 75.3856 88.4238 75.1438C88.4175 75.1325 88.4113 75.1219 88.405 75.1113C88.2763 74.8763 88.1363 74.6494 87.9894 74.4269C87.9532 74.3719 87.9175 74.3175 87.8807 74.2638C87.7294 74.0438 87.57 73.83 87.4019 73.6238C87.3669 73.5806 87.3294 73.5394 87.2932 73.4969C87.1407 73.3163 86.9813 73.1413 86.8163 72.9719C86.7782 72.9331 86.7425 72.8931 86.7038 72.855C86.5163 72.6694 86.32 72.4925 86.1182 72.3225C86.0638 72.2769 86.0088 72.2331 85.9544 72.1888C85.7488 72.0231 85.5394 71.8632 85.3207 71.715C83.7588 70.6532 81.8738 70.0313 79.8432 70.0313H77.3125V69.7113V66.4325C77.2869 66.4413 77.2607 66.4469 77.235 66.455C79.325 65.7831 81.0107 64.215 81.8413 62.2019C81.9669 62.0788 82.0832 61.9469 82.2025 61.8169C82.27 61.8225 82.3357 61.8338 82.4044 61.8338C83.73 61.8338 84.805 60.7588 84.805 59.4332C84.805 58.9169 84.6388 58.4413 84.3613 58.0494C84.6369 57.1431 84.7875 56.1832 84.7875 55.1869C84.7875 54.855 84.77 54.5269 84.7375 54.2038C84.7375 54.2038 84.7382 54.2038 84.7382 54.2031C84.7382 54.2013 84.7375 54.1994 84.7375 54.1969C84.7275 54.095 84.7063 53.9963 84.6932 53.8956C84.6644 53.6788 84.6369 53.4613 84.5944 53.2488C84.5682 53.1175 84.5307 52.9913 84.4994 52.8619C84.4563 52.6844 84.4157 52.5063 84.3632 52.3325C84.3225 52.1975 84.2719 52.0675 84.2257 51.935C84.1688 51.7731 84.1138 51.61 84.0488 51.4519C83.9944 51.32 83.9319 51.1925 83.8725 51.0631C83.8025 50.9119 83.7332 50.76 83.6557 50.6125C83.5888 50.4857 83.5157 50.3632 83.4432 50.2394C83.36 50.0975 83.2769 49.9556 83.1875 49.8181C83.1094 49.6981 83.0257 49.5819 82.9425 49.4656C82.8475 49.3325 82.7507 49.2013 82.6494 49.0731C82.5607 48.9613 82.4682 48.8525 82.3744 48.745C82.2675 48.6219 82.1588 48.5007 82.0457 48.3832C81.9469 48.2807 81.8463 48.1806 81.7432 48.0819C81.6244 47.9681 81.5032 47.8588 81.3788 47.7513C81.2719 47.6588 81.1638 47.5682 81.0532 47.48C80.9232 47.3769 80.79 47.2788 80.655 47.1825C80.5413 47.1013 80.4269 47.0206 80.3094 46.9438C80.1682 46.8519 80.0232 46.7657 79.8769 46.6813C79.7575 46.6119 79.6382 46.5419 79.5157 46.4775C79.3632 46.3975 79.2063 46.325 79.0488 46.2525C78.925 46.1956 78.8025 46.1369 78.6763 46.085C78.5113 46.0175 78.3419 45.9594 78.1719 45.9007C78.0469 45.8575 77.9232 45.8106 77.7957 45.7719C77.6144 45.7169 77.4282 45.6738 77.2425 45.6294C77.1213 45.6007 77.0019 45.5663 76.8788 45.5419C76.6694 45.5 76.4557 45.4725 76.2413 45.4444C76.1369 45.4306 76.035 45.41 75.9294 45.4C75.6082 45.3681 75.2825 45.3506 74.9525 45.3506C74.64 45.3506 74.3319 45.3688 74.0275 45.3975C73.9319 45.4063 73.8388 45.4213 73.7438 45.4325C73.5338 45.4581 73.3257 45.4888 73.1194 45.5275C73.0138 45.5475 72.9094 45.5694 72.805 45.5931C72.635 45.6313 72.4669 45.6731 72.3007 45.72C72.3007 45.7188 72.3007 45.7169 72.3 45.7156C72.2625 45.7263 72.2269 45.7407 72.19 45.7513C72.1032 45.7769 72.0163 45.8006 71.9307 45.8288C71.8244 45.8631 71.72 45.9 71.6157 45.9375C71.5425 45.9638 71.4713 45.9925 71.3994 46.0207C71.3525 46.0388 71.305 46.0556 71.2582 46.0744C71.2063 46.0956 71.1519 46.1132 71.1 46.135C71.0275 46.1663 70.9575 46.2019 70.8857 46.235C70.8132 46.2681 70.7425 46.3031 70.6707 46.3375C70.5513 46.3956 70.43 46.4513 70.3132 46.5138C70.2613 46.5419 70.2107 46.5725 70.1594 46.6013C70.0963 46.6369 70.035 46.6744 69.9725 46.7113C69.8338 46.7931 69.6969 46.8756 69.5625 46.9638C69.475 47.0213 69.3907 47.0813 69.305 47.1413C69.2275 47.1957 69.1469 47.2456 69.0713 47.3019C69.0719 47.3056 69.0725 47.3094 69.0732 47.3131C68.97 47.39 68.865 47.4644 68.7657 47.545C68.6657 47.6256 68.5719 47.7125 68.4757 47.7975C68.3525 47.905 68.2307 48.0131 68.1132 48.1269C68.0182 48.2188 67.9275 48.3138 67.8363 48.4088C67.7244 48.5263 67.615 48.6463 67.5088 48.7694C67.425 48.8669 67.3419 48.9644 67.2619 49.0644C67.1532 49.2006 67.0507 49.3413 66.9488 49.4831C66.8813 49.5775 66.8119 49.67 66.7482 49.7663C66.6175 49.9638 66.495 50.1675 66.3782 50.375C66.3519 50.4213 66.3219 50.465 66.2969 50.5119C66.16 50.765 66.0357 51.0263 65.9207 51.2925C65.8813 51.3838 65.8482 51.4775 65.8113 51.57C65.7382 51.7544 65.6682 51.9406 65.6063 52.1306C65.5713 52.2375 65.54 52.3463 65.5088 52.455C65.4557 52.6394 65.4075 52.825 65.365 53.0138C65.34 53.1238 65.3157 53.2338 65.2944 53.3456C65.2557 53.5488 65.2263 53.755 65.2 53.9625C65.1875 54.0606 65.1719 54.1569 65.1625 54.2563C65.1338 54.5631 65.1157 54.8732 65.1157 55.1875C65.1157 55.4769 65.1338 55.7625 65.1588 56.045C65.1675 56.1463 65.1782 56.2463 65.19 56.3469C65.1963 56.4 65.1994 56.4538 65.2063 56.5063C65.2088 56.5057 65.2113 56.5044 65.2138 56.5038C65.285 57.0325 65.39 57.5506 65.5419 58.0494C65.2644 58.4413 65.0975 58.9163 65.0975 59.4332C65.0975 60.7588 66.1725 61.8338 67.4982 61.8338C67.5669 61.8338 67.6332 61.8225 67.7007 61.8169C67.8194 61.9469 67.9363 62.0782 68.0613 62.2013C68.8919 64.2144 70.5782 65.7825 72.6675 66.4544C72.6419 66.4463 72.6157 66.4406 72.59 66.4319V67.8494V69.02V70.0307H70.0607C70.0363 70.0307 70.0132 70.0338 69.9888 70.0344C69.8357 70.0356 69.6838 70.04 69.5325 70.0482C69.6838 70.04 69.8357 70.0356 69.9888 70.0344C67.9888 70.0488 66.1319 70.6631 64.5907 71.7094C64.3688 71.86 64.155 72.0231 63.9463 72.1913C63.8932 72.2344 63.84 72.2769 63.7882 72.3206C63.5844 72.4919 63.3863 72.67 63.1975 72.8575C63.1619 72.8931 63.1275 72.9307 63.0925 72.9669C62.9238 73.1388 62.7619 73.3175 62.6063 73.5019C62.5725 73.5425 62.5369 73.5813 62.5038 73.6219C62.3338 73.83 62.1738 74.0457 62.0213 74.2675C61.9857 74.3188 61.9519 74.3713 61.9175 74.4232C61.7675 74.6507 61.6238 74.8825 61.4925 75.1225C61.49 75.1275 61.4863 75.1319 61.4838 75.1369C61.4832 75.1381 61.4832 75.1388 61.4825 75.14C61.3494 75.385 61.23 75.6388 61.1182 75.8963C61.1044 75.9282 61.0869 75.9575 61.0732 75.9894C61.0625 76.0138 61.0557 76.0406 61.0457 76.065C60.94 76.32 60.8438 76.5794 60.76 76.845C60.7557 76.8588 60.7494 76.8719 60.745 76.8856C60.7357 76.9156 60.7307 76.9475 60.7213 76.9775C60.6475 77.2232 60.5838 77.4725 60.5288 77.7256C60.5188 77.7725 60.5069 77.8181 60.4975 77.865C60.4425 78.1419 60.4 78.4232 60.3688 78.7075C60.3619 78.77 60.3563 78.8325 60.3507 78.895C60.3238 79.1888 60.3057 79.4857 60.3057 79.7863V82.44V84.265C60.3057 84.7075 60.44 85.1188 60.6707 85.4594C61.055 86.0288 61.7057 86.4025 62.4444 86.4025H64.5975H85.3038H87.4569C88.6388 86.4025 89.5957 85.4457 89.5957 84.2638V82.4406V79.7856C89.5957 79.7831 89.5957 79.7813 89.5957 79.7788C89.5969 79.4813 89.5788 79.1881 89.5525 78.8975ZM75.6507 66.7775C75.4207 66.7988 75.1882 66.8131 74.9525 66.8131C74.7169 66.8131 74.4844 66.7994 74.2544 66.7775C74.4844 66.7988 74.7169 66.8125 74.9525 66.8125C75.1882 66.8125 75.42 66.7994 75.6507 66.7775ZM76.1638 66.715C76.0663 66.7313 75.9657 66.7394 75.8669 66.7513C76.0238 66.7319 76.18 66.7088 76.3338 66.68C76.2769 66.6907 76.2213 66.7057 76.1638 66.715ZM76.5769 66.63C76.725 66.5969 76.8707 66.5588 77.015 66.5175C76.87 66.5588 76.7244 66.5969 76.5769 66.63ZM73.3282 66.63C73.2719 66.6175 73.2138 66.6088 73.1582 66.595C73.0675 66.5725 72.9794 66.5431 72.89 66.5175C73.0344 66.5588 73.18 66.5969 73.3282 66.63ZM74.0375 66.7513C73.8807 66.7319 73.725 66.7088 73.5707 66.68C73.725 66.7088 73.8807 66.7319 74.0375 66.7513Z" fill="#382B73"/>
<path d="M84.7381 92.0888H65.1656C64.3406 92.0888 63.6719 92.7575 63.6719 93.5825V113.155C63.6719 113.98 64.3406 114.649 65.1656 114.649H84.7381C85.5631 114.649 86.2319 113.98 86.2319 113.155V93.5825C86.2319 92.7575 85.5631 92.0888 84.7381 92.0888Z" fill="#382B73"/>
<path d="M118.922 92.0888H99.3497C98.5247 92.0888 97.856 92.7575 97.856 93.5825V113.155C97.856 113.98 98.5247 114.649 99.3497 114.649H118.922C119.747 114.649 120.416 113.98 120.416 113.155V93.5825C120.416 92.7575 119.747 92.0888 118.922 92.0888Z" fill="#382B73"/>
<path d="M50.6507 92.0888H31.0782C30.2532 92.0888 29.5845 92.7575 29.5845 93.5825V113.155C29.5845 113.98 30.2532 114.649 31.0782 114.649H50.6507C51.4757 114.649 52.1445 113.98 52.1445 113.155V93.5825C52.1445 92.7575 51.4757 92.0888 50.6507 92.0888Z" fill="#382B73"/>
<path d="M50.6414 49.5307H31.0608V66.3494H50.6414V49.5307Z" fill="#009ADD"/>
<path d="M53.3848 81.4006H28.3436C27.1623 81.4006 26.2048 80.4431 26.2048 79.2619V74.7794C26.2048 69.3869 30.5761 65.0156 35.9686 65.0156H45.7592C51.1517 65.0156 55.523 69.3869 55.523 74.7794V79.2619C55.523 80.4431 54.5655 81.4006 53.3848 81.4006Z" fill="#1CAEE4"/>
<path d="M53.3848 81.4006H28.3436C27.1623 81.4006 26.2048 80.4431 26.2048 79.2619V74.7794C26.2048 69.3869 30.5761 65.0156 35.9686 65.0156H45.7592C51.1517 65.0156 55.523 69.3869 55.523 74.7794V79.2619C55.523 80.4431 54.5655 81.4006 53.3848 81.4006Z" fill="#A72973"/>
<path d="M38.1564 74.3762C39.4226 76.3494 42.3058 76.3494 43.572 74.3762C45.5126 71.3525 47.9839 67.5 49.1814 65.6337C48.1164 65.235 46.9639 65.0156 45.7589 65.0156H35.9689C34.7645 65.0156 33.612 65.235 32.5464 65.6337L38.1564 74.3762Z" fill="#EF5A9D"/>
<path d="M42.6629 73.6812C44.4348 70.9194 47.0211 66.8887 48.0486 65.2881C47.3142 65.1112 46.5479 65.0156 45.7592 65.0156H35.9686C35.1798 65.0156 34.4136 65.1119 33.6792 65.2881L39.0636 73.68C39.9054 74.9912 41.8217 74.9931 42.6629 73.6812Z" fill="#E43D91"/>
<path d="M35.5483 65.0156L39.3621 70.9594L40.8646 68.6975L38.5021 65.0156H35.5483Z" fill="#F06EA9"/>
<path d="M46.1801 65.0156L42.3664 70.9594L40.8645 68.6975L43.227 65.0156H46.1801Z" fill="#F06EA9"/>
<path d="M40.8642 71.8363C41.1593 71.8363 41.3986 71.597 41.3986 71.3019C41.3986 71.0068 41.1593 70.7675 40.8642 70.7675C40.5691 70.7675 40.3298 71.0068 40.3298 71.3019C40.3298 71.597 40.5691 71.8363 40.8642 71.8363Z" fill="#EF5A9D"/>
<path d="M30.5015 81.4007H31.5971V66.0494C31.2171 66.24 30.8508 66.4525 30.5015 66.6894V81.4007Z" fill="#EF5A9D"/>
<path d="M50.1318 81.4007H51.2275V66.6894C50.8781 66.4525 50.5112 66.24 50.1318 66.0494V81.4007Z" fill="#EF5A9D"/>
<path d="M30.5005 81.4006V66.6894C27.9086 68.445 26.2048 71.4131 26.2048 74.7794V79.2619C26.2048 80.4431 27.1623 81.4006 28.3436 81.4006H30.5005Z" fill="#E43D91"/>
<path d="M51.2275 66.6894V81.4006H53.3844C54.5657 81.4006 55.5232 80.4431 55.5232 79.2619V74.7794C55.5232 71.4131 53.8194 68.445 51.2275 66.6894Z" fill="#E43D91"/>
<path d="M40.8643 60.0038C46.2912 60.0038 50.6906 55.6044 50.6906 50.1775C50.6906 44.7506 46.2912 40.3513 40.8643 40.3513C35.4375 40.3513 31.0381 44.7506 31.0381 50.1775C31.0381 55.6044 35.4375 60.0038 40.8643 60.0038Z" fill="#009ADD"/>
<path d="M40.8641 61.7938C36.7516 61.7938 33.4185 58.46 33.4185 54.3482V50.4819C33.4185 46.3694 36.7522 43.0363 40.8641 43.0363C44.9766 43.0363 48.3097 46.37 48.3097 50.4819V54.3482C48.3097 58.46 44.976 61.7938 40.8641 61.7938Z" fill="white"/>
<path d="M40.8642 61.7938C40.0386 61.7938 39.2442 61.6594 38.5017 61.4113V65.0157L40.8642 68.6975L43.2267 65.0157V61.4113C42.4842 61.6594 41.6898 61.7938 40.8642 61.7938Z" fill="#E6E7E8"/>
<path d="M40.8642 61.7938C40.0386 61.7938 39.2442 61.6594 38.5017 61.4113V62.8306C39.2448 63.0794 40.0373 63.2194 40.8642 63.2194C41.6911 63.2194 42.4836 63.0788 43.2267 62.83V61.4106C42.4842 61.6594 41.6898 61.7938 40.8642 61.7938Z" fill="#D1D3D4"/>
<path d="M40.8641 60.7244C36.7516 60.7244 33.4185 57.3907 33.4185 53.2788V54.3482C33.4185 58.4607 36.7522 61.7938 40.8641 61.7938C44.9766 61.7938 48.3097 58.4601 48.3097 54.3482V53.2788C48.3097 57.3907 44.976 60.7244 40.8641 60.7244Z" fill="#E6E7E8"/>
<path d="M33.4182 50.4819V51.9481C36.3288 50.2512 38.2888 47.1062 38.3032 43.4975C35.4545 44.5431 33.4182 47.2706 33.4182 50.4819Z" fill="#E6E7E8"/>
<path d="M44.7662 52.2132C46.0168 52.2132 47.2099 51.9725 48.3099 51.5463V50.4819C48.3099 46.3694 44.9762 43.0363 40.8643 43.0363C38.7118 43.0363 36.7781 43.955 35.4187 45.4157C36.6956 49.36 40.3962 52.2132 44.7662 52.2132Z" fill="#E6E7E8"/>
<path d="M34.989 42.3007C35.4821 47.2663 39.6709 51.1444 44.7665 51.1444C46.9696 51.1444 49.0028 50.4194 50.6421 49.195C50.149 44.2294 45.9603 40.3513 40.8646 40.3513C38.6615 40.3513 36.6278 41.0763 34.989 42.3007Z" fill="#1CAEE4"/>
<path d="M31.0381 50.1775C31.0381 50.625 31.0706 51.0638 31.1287 51.4957C35.2681 50.3388 38.305 46.5419 38.305 42.0338C38.305 41.5863 38.2725 41.1475 38.2143 40.7157C34.075 41.8725 31.0381 45.6694 31.0381 50.1775Z" fill="#009ADD"/>
<path d="M37.6963 54.2744C38.1944 54.2744 38.5982 53.8706 38.5982 53.3725C38.5982 52.8745 38.1944 52.4707 37.6963 52.4707C37.1982 52.4707 36.7944 52.8745 36.7944 53.3725C36.7944 53.8706 37.1982 54.2744 37.6963 54.2744Z" fill="#1CAEE4"/>
<path d="M45.5967 53.3725C45.5967 53.8707 45.193 54.2744 44.6948 54.2744C44.1967 54.2744 43.793 53.8707 43.793 53.3725C43.793 52.8744 44.1967 52.4707 44.6948 52.4707C45.1923 52.4707 45.5967 52.8744 45.5967 53.3725Z" fill="#1CAEE4"/>
<path d="M121.656 81.4007H96.6148C95.4336 81.4007 94.4761 80.4432 94.4761 79.2619V74.7794C94.4761 69.3869 98.8473 65.0157 104.24 65.0157H114.03C119.423 65.0157 123.794 69.3869 123.794 74.7794V79.2619C123.795 80.4432 122.837 81.4007 121.656 81.4007Z" fill="#1CAEE4"/>
<path d="M119.499 66.6894V81.4007H121.656C122.837 81.4007 123.795 80.4432 123.795 79.2619V74.7794C123.795 71.4132 122.091 68.445 119.499 66.6894Z" fill="#009ADD"/>
<path d="M114.452 65.0156L111.499 63.7431V65.0156L109.135 68.6975L106.773 65.0156V63.7431L103.82 65.0156L109.135 79.4406L114.452 65.0156Z" fill="#D1D3D4"/>
<path d="M103.82 65.0156L106.052 71.0663C106.142 71.31 106.455 71.3788 106.639 71.195L109.136 68.6975L106.774 65.0156V63.7431L103.82 65.0156Z" fill="white"/>
<path d="M114.452 65.0156L112.219 71.0663C112.129 71.31 111.817 71.3788 111.633 71.195L109.135 68.6975L111.498 65.0156V63.7431L114.452 65.0156Z" fill="white"/>
<path d="M109.136 61.7938C108.31 61.7938 107.516 61.6594 106.773 61.4113V64.0025V65.0157L109.136 68.6975L111.498 65.0157V64.625V61.4113C110.756 61.6594 109.962 61.7938 109.136 61.7938Z" fill="#E6E7E8"/>
<path d="M111.114 70.6757L109.64 72.1494C109.362 72.4275 108.91 72.4275 108.632 72.1494L107.158 70.6757L109.135 68.6982L111.114 70.6757Z" fill="#1CAEE4"/>
<path d="M109.639 72.1494C109.361 72.4275 108.909 72.4275 108.631 72.1494L108.126 71.6444L107.688 75.5138L109.135 79.4419L110.582 75.5138L110.144 71.6444L109.639 72.1494Z" fill="#009ADD"/>
<path d="M102.163 71.3519L103.42 70.2432C103.653 70.0382 103.531 69.6544 103.222 69.6213L101.746 69.4632C101.516 69.4388 101.37 69.2051 101.448 68.9876L102.851 65.1163C103.171 65.0701 103.496 65.0376 103.824 65.0269L109.135 79.4413L102.136 71.8607C102.001 71.7138 102.013 71.4838 102.163 71.3519Z" fill="#27C1E6"/>
<path d="M116.109 71.3519L114.851 70.2432C114.619 70.0382 114.741 69.6544 115.049 69.6213L116.526 69.4632C116.756 69.4388 116.902 69.2051 116.823 68.9876L115.421 65.1163C115.1 65.0701 114.776 65.0376 114.448 65.0269L109.137 79.4413L116.136 71.8607C116.271 71.7138 116.259 71.4838 116.109 71.3519Z" fill="#27C1E6"/>
<path d="M117.813 78.4382H113.001C112.724 78.4382 112.5 78.6626 112.5 78.9394C112.5 79.2163 112.724 79.4407 113.001 79.4407H117.813C118.09 79.4407 118.314 79.2163 118.314 78.9394C118.314 78.6626 118.09 78.4382 117.813 78.4382Z" fill="#27C1E6"/>
<path d="M98.7722 81.4007V66.6894C96.1803 68.445 94.4766 71.4132 94.4766 74.7794V79.2619C94.4766 80.4432 95.4341 81.4007 96.6153 81.4007H98.7722Z" fill="#009ADD"/>
<path d="M116.083 57.1262C119.92 53.2889 119.92 47.0673 116.083 43.2299C112.245 39.3926 106.024 39.3926 102.186 43.2299C98.3491 47.0673 98.3491 53.2889 102.186 57.1262C106.024 60.9636 112.245 60.9636 116.083 57.1262Z" fill="#009ADD"/>
<path d="M109.136 61.7938C105.023 61.7938 101.69 58.46 101.69 54.3482V50.4819C101.69 46.3694 105.024 43.0363 109.136 43.0363C113.248 43.0363 116.581 46.37 116.581 50.4819V54.3482C116.582 58.46 113.248 61.7938 109.136 61.7938Z" fill="white"/>
<path d="M109.136 61.7938C108.31 61.7938 107.516 61.6594 106.773 61.4113V62.8307C107.516 63.0794 108.309 63.22 109.136 63.22C109.963 63.22 110.755 63.0794 111.498 62.8307V61.4113C110.756 61.6594 109.962 61.7938 109.136 61.7938Z" fill="#D1D3D4"/>
<path d="M101.69 54.3481V52.0212C100.365 52.0212 99.291 53.095 99.291 54.4194C99.291 55.7437 100.365 56.8181 101.69 56.8181C101.829 56.8181 101.965 56.8062 102.097 56.7837C101.833 56.02 101.69 55.2006 101.69 54.3481Z" fill="white"/>
<path d="M116.582 52.0212V54.3481C116.582 55.2012 116.438 56.0206 116.174 56.7837C116.307 56.8062 116.443 56.8181 116.582 56.8181C117.906 56.8181 118.981 55.7444 118.981 54.4194C118.98 53.095 117.906 52.0212 116.582 52.0212Z" fill="white"/>
<path d="M109.136 60.7244C105.023 60.7244 101.69 57.3907 101.69 53.2788V54.3482C101.69 58.4607 105.024 61.7938 109.136 61.7938C113.248 61.7938 116.581 58.4601 116.581 54.3482V53.2788C116.582 57.3907 113.248 60.7244 109.136 60.7244Z" fill="#E6E7E8"/>
<path d="M101.69 50.4819V51.9481C104.601 50.2512 106.561 47.1062 106.575 43.4975C103.726 44.5431 101.69 47.2706 101.69 50.4819Z" fill="#E6E7E8"/>
<path d="M113.037 52.2132C114.288 52.2132 115.481 51.9725 116.581 51.5463V50.4813C116.581 46.3688 113.247 43.0357 109.135 43.0357C106.983 43.0357 105.049 43.9544 103.69 45.415C104.967 49.36 108.668 52.2132 113.037 52.2132Z" fill="#E6E7E8"/>
<path d="M103.261 42.3007C103.754 47.2663 107.943 51.1444 113.038 51.1444C115.241 51.1444 117.275 50.4194 118.914 49.195C118.421 44.2294 114.232 40.3513 109.136 40.3513C106.933 40.3513 104.899 41.0763 103.261 42.3007Z" fill="#1CAEE4"/>
<path d="M99.3093 50.1775C99.3093 50.625 99.3418 51.0638 99.3999 51.4957C103.539 50.3388 106.576 46.5419 106.576 42.0338C106.576 41.5863 106.544 41.1475 106.486 40.7157C102.347 41.8725 99.3093 45.6694 99.3093 50.1775Z" fill="#009ADD"/>
<path d="M106.87 53.3725C106.87 53.8707 106.466 54.2744 105.968 54.2744C105.47 54.2744 105.066 53.8707 105.066 53.3725C105.066 52.8744 105.47 52.4707 105.968 52.4707C106.466 52.4707 106.87 52.8744 106.87 53.3725Z" fill="#1CAEE4"/>
<path d="M113.868 53.3725C113.868 53.8707 113.464 54.2744 112.966 54.2744C112.468 54.2744 112.064 53.8707 112.064 53.3725C112.064 52.8744 112.468 52.4707 112.966 52.4707C113.464 52.4707 113.868 52.8744 113.868 53.3725Z" fill="#1CAEE4"/>
<path d="M101.69 54.3482V53.0413C100.928 53.0413 100.312 53.6582 100.312 54.4194C100.312 55.1807 100.928 55.7975 101.69 55.7975C101.738 55.7975 101.784 55.7882 101.831 55.7832C101.74 55.3188 101.69 54.8394 101.69 54.3482Z" fill="#E6E7E8"/>
<path d="M116.589 54.3482V53.0413C117.35 53.0413 117.967 53.6582 117.967 54.4194C117.967 55.1807 117.35 55.7975 116.589 55.7975C116.54 55.7975 116.494 55.7882 116.447 55.7832C116.538 55.3188 116.589 54.8394 116.589 54.3482Z" fill="#E6E7E8"/>
<path d="M87.4604 81.4007H62.4441C61.2641 81.4007 60.3079 80.4438 60.3079 79.2638V74.7857C60.3079 69.3988 64.6747 65.0313 70.0622 65.0313H79.8435C85.2304 65.0313 89.5979 69.3982 89.5979 74.7857V79.2638C89.5966 80.4444 88.6404 81.4007 87.4604 81.4007Z" fill="#1CAEE4"/>
<path d="M89.5972 74.785V79.2632C89.5972 80.445 88.6404 81.4019 87.4585 81.4019H62.4466C61.2647 81.4019 60.3079 80.445 60.3079 79.2632V74.785C60.3079 69.3982 64.676 65.03 70.0629 65.03H79.8416C85.2291 65.03 89.5972 69.3982 89.5972 74.785Z" fill="#FEDE3A"/>
<path d="M74.9525 67.5851C76.98 67.5851 78.6231 66.4419 78.6231 65.0313H71.2812C71.2812 66.4419 72.925 67.5851 74.9525 67.5851Z" fill="#E7AD27"/>
<path d="M64.5993 77.4406V81.4019H62.4461C61.2643 81.4019 60.3074 80.445 60.3074 79.2631V77.44H64.5993V77.4406Z" fill="white"/>
<path d="M64.5988 77.4394H63.0857V81.4006H64.5988V77.4394Z" fill="#E6E7E8"/>
<path d="M89.5975 77.4406V79.2638C89.5975 80.4456 88.6407 81.4025 87.4588 81.4025H85.3057V77.4413H89.5975V77.4406Z" fill="white"/>
<path d="M86.9382 77.4394H85.3057V81.4006H86.9382V77.4394Z" fill="#E6E7E8"/>
<path d="M64.5993 77.4394V66.7038C62.0099 68.4575 60.3074 71.4225 60.3074 74.7857V77.4394H64.5993Z" fill="#E7AD27"/>
<path d="M85.3057 66.7038V77.4394H89.5969V74.7857C89.5969 71.4232 87.895 68.4575 85.3057 66.7038Z" fill="#E7AD27"/>
<path d="M74.9523 61.8132C74.1273 61.8132 73.3335 61.6788 72.5923 61.4313V64.0194V65.0319C73.696 66.7519 76.2092 66.7519 77.3129 65.0319V64.7101V61.4313C76.5704 61.6788 75.7773 61.8132 74.9523 61.8132Z" fill="#E6E7E8"/>
<path d="M79.8433 65.0319C80.0201 65.0319 80.1958 65.038 80.3701 65.0471C80.1958 65.038 80.0201 65.0319 79.8433 65.0319Z" fill="#E7AD27"/>
<path d="M81.6223 65.1969C81.7823 65.2254 81.9411 65.2576 82.0979 65.294C81.9411 65.2582 81.7823 65.226 81.6223 65.1969Z" fill="#E7AD27"/>
<path d="M81.0068 65.102C81.185 65.1226 81.3618 65.1493 81.5368 65.1797C81.3618 65.1493 81.1856 65.1226 81.0068 65.102Z" fill="#E7AD27"/>
<path d="M80.4932 65.0544C80.665 65.0653 80.8357 65.0799 81.005 65.0993C80.8357 65.0799 80.6644 65.0653 80.4932 65.0544Z" fill="#E7AD27"/>
<path d="M70.0618 65.0319C69.8849 65.0319 69.7093 65.038 69.5349 65.0471C69.7093 65.038 69.8849 65.0319 70.0618 65.0319Z" fill="#E7AD27"/>
<path d="M68.9004 65.0993C69.0698 65.0793 69.2404 65.0653 69.4123 65.0544C69.2404 65.0653 69.0698 65.0799 68.9004 65.0993Z" fill="#E7AD27"/>
<path d="M67.8069 65.294C67.9638 65.2576 68.1225 65.2254 68.2825 65.1969C68.1231 65.226 67.9644 65.2582 67.8069 65.294Z" fill="#E7AD27"/>
<path d="M68.3677 65.1791C68.5427 65.1493 68.7196 65.1226 68.8977 65.1013C68.7196 65.1226 68.5433 65.1493 68.3677 65.1791Z" fill="#E7AD27"/>
<path d="M74.9527 60.0213C80.3844 60.0213 84.7877 55.618 84.7877 50.1863C84.7877 44.7546 80.3844 40.3513 74.9527 40.3513C69.521 40.3513 65.1177 44.7546 65.1177 50.1863C65.1177 55.618 69.521 60.0213 74.9527 60.0213Z" fill="#009ADD"/>
<path d="M74.9523 61.8131C70.8366 61.8131 67.4998 58.4763 67.4998 54.3606V50.4913C67.4998 46.3756 70.8366 43.0388 74.9523 43.0388C79.0679 43.0388 82.4048 46.3756 82.4048 50.4913V54.3606C82.4048 58.4763 79.0679 61.8131 74.9523 61.8131Z" fill="white"/>
<path d="M74.9527 61.8132C74.1277 61.8132 73.3339 61.6788 72.592 61.4313V62.8488C73.3345 63.0969 74.1264 63.2376 74.9527 63.2376C75.7789 63.2376 76.5708 63.0969 77.3127 62.8488V61.4313C76.5708 61.6788 75.7777 61.8132 74.9527 61.8132Z" fill="#D1D3D4"/>
<path d="M67.5 54.3606V52.0312C66.1744 52.0312 65.0994 53.1063 65.0994 54.4319C65.0994 55.7575 66.1744 56.8325 67.5 56.8325C67.6394 56.8325 67.7756 56.8206 67.9081 56.7981C67.6437 56.0337 67.5 55.2144 67.5 54.3606Z" fill="white"/>
<path d="M82.405 52.0312V54.36C82.405 55.2137 82.2612 56.0338 81.9968 56.7975C82.1293 56.82 82.2656 56.8319 82.405 56.8319C83.7306 56.8319 84.8056 55.7569 84.8056 54.4312C84.8056 53.1056 83.7306 52.0312 82.405 52.0312Z" fill="white"/>
<path d="M74.9523 60.7425C70.8366 60.7425 67.4998 57.4056 67.4998 53.29V54.36C67.4998 58.4756 70.8366 61.8125 74.9523 61.8125C79.0679 61.8125 82.4048 58.4756 82.4048 54.36V53.29C82.4048 57.4063 79.0679 60.7425 74.9523 60.7425Z" fill="#E6E7E8"/>
<path d="M67.4998 50.4906V51.9588C70.4129 50.2606 72.3748 47.1125 72.3891 43.5006C69.5379 44.5469 67.4998 47.2769 67.4998 50.4906Z" fill="#E6E7E8"/>
<path d="M78.858 52.2238C80.1098 52.2238 81.3036 51.9831 82.4048 51.5563V50.4906C82.4048 46.375 79.068 43.0381 74.9523 43.0381C72.798 43.0381 70.8623 43.9581 69.5017 45.42C70.7798 49.3675 74.4842 52.2238 78.858 52.2238Z" fill="#E6E7E8"/>
<path d="M69.0718 42.3025C69.5655 47.2725 73.758 51.1538 78.858 51.1538C81.063 51.1538 83.0987 50.4282 84.7387 49.2025C84.2449 44.2325 80.0524 40.3513 74.9524 40.3513C72.7474 40.3513 70.7118 41.0769 69.0718 42.3025Z" fill="#1CAEE4"/>
<path d="M65.1174 50.1863C65.1174 50.6338 65.1499 51.0738 65.2081 51.505C69.3506 50.3469 72.3906 46.5469 72.3906 42.035C72.3906 41.5875 72.3581 41.1475 72.2999 40.7157C68.1574 41.8744 65.1174 45.6738 65.1174 50.1863Z" fill="#009ADD"/>
<path d="M71.7815 54.2869C72.2803 54.2869 72.6847 53.8825 72.6847 53.3837C72.6847 52.885 72.2803 52.4806 71.7815 52.4806C71.2828 52.4806 70.8784 52.885 70.8784 53.3837C70.8784 53.8825 71.2828 54.2869 71.7815 54.2869Z" fill="#1CAEE4"/>
<path d="M78.7864 54.2869C79.2852 54.2869 79.6896 53.8825 79.6896 53.3837C79.6896 52.885 79.2852 52.4806 78.7864 52.4806C78.2876 52.4806 77.8833 52.885 77.8833 53.3837C77.8833 53.8825 78.2876 54.2869 78.7864 54.2869Z" fill="#1CAEE4"/>
<path d="M67.4997 54.3606V53.0525C66.7379 53.0525 66.1204 53.67 66.1204 54.4319C66.1204 55.1938 66.7379 55.8113 67.4997 55.8113C67.5485 55.8113 67.5941 55.8019 67.641 55.7969C67.5504 55.3319 67.4997 54.8525 67.4997 54.3606Z" fill="#E6E7E8"/>
<path d="M82.4115 54.3606V53.0525C83.1734 53.0525 83.7909 53.67 83.7909 54.4319C83.7909 55.1938 83.1734 55.8113 82.4115 55.8113C82.3628 55.8113 82.3171 55.8019 82.2703 55.7969C82.3609 55.3319 82.4115 54.8525 82.4115 54.3606Z" fill="#E6E7E8"/>
<path d="M84.7381 109.649H65.1656C64.3406 109.649 63.6719 108.98 63.6719 108.155V88.5825C63.6719 87.7575 64.3406 87.0887 65.1656 87.0887H84.7381C85.5631 87.0887 86.2319 87.7575 86.2319 88.5825V108.155C86.2319 108.98 85.5631 109.649 84.7381 109.649Z" fill="white"/>
<path d="M82.9842 97.1094C83.0211 97.0406 83.0636 96.9744 83.0923 96.9037C83.1311 96.8094 83.1555 96.7119 83.1817 96.6144C83.193 96.5725 83.2105 96.5312 83.2192 96.4887C83.2455 96.3631 83.2567 96.2362 83.2611 96.1087C83.2617 96.0937 83.2655 96.0787 83.2655 96.0644C83.2773 95.4575 83.0555 94.8469 82.5923 94.3837C81.6886 93.48 80.2248 93.48 79.3211 94.3837L73.4711 100.234L70.5836 97.3487C69.6798 96.445 68.2161 96.445 67.3123 97.3487C66.8492 97.8119 66.6273 98.4231 66.6386 99.03C66.6386 99.0456 66.6423 99.0612 66.643 99.0769C66.648 99.2037 66.6592 99.33 66.6848 99.4544C66.6936 99.4975 66.7111 99.5394 66.723 99.5825C66.7492 99.6794 66.773 99.7762 66.8117 99.87C66.8417 99.9431 66.8848 100.011 66.923 100.081C66.9561 100.142 66.9817 100.205 67.0198 100.262C67.1036 100.389 67.2005 100.509 67.3117 100.62L67.3123 100.621L71.8348 105.142C72.0517 105.359 72.3073 105.529 72.5855 105.644C72.8636 105.759 73.1642 105.82 73.4705 105.82C73.778 105.82 74.078 105.759 74.3561 105.644C74.6342 105.529 74.8892 105.359 75.1061 105.142L80.0961 100.151L82.5917 97.6556C82.5973 97.65 82.6011 97.6431 82.6067 97.6375C82.7111 97.5312 82.8042 97.4181 82.8836 97.2981C82.9242 97.2369 82.9511 97.1719 82.9842 97.1094Z" fill="#D1D3D4"/>
<path d="M73.4711 104.027C72.858 104.027 72.2692 103.783 71.8355 103.349L67.3123 98.8269C66.4086 97.9237 66.4086 96.4594 67.3123 95.5556C68.2161 94.6519 69.6798 94.6519 70.5836 95.5556L73.4711 98.4412L79.3211 92.5906C80.2248 91.6869 81.6886 91.6869 82.5923 92.5906C83.4961 93.4937 83.4961 94.9581 82.5923 95.8619L75.1067 103.349C74.673 103.782 74.0855 104.027 73.4711 104.027Z" fill="#1CAEE4"/>
<path d="M82.5927 92.7444L75.1071 100.231C74.6733 100.665 74.0858 100.909 73.4714 100.909C72.8583 100.909 72.2696 100.665 71.8358 100.231L67.3127 95.7088C67.2889 95.685 67.2727 95.6569 67.2502 95.6319C66.4171 96.54 66.4333 97.9475 67.3127 98.8263L71.8358 103.349C72.2696 103.783 72.8583 104.026 73.4714 104.026C74.0858 104.026 74.6733 103.783 75.1071 103.349L82.5927 95.8619C83.4727 94.9819 83.4883 93.5744 82.6558 92.6675C82.6327 92.6919 82.6164 92.7206 82.5927 92.7444Z" fill="#009ADD"/>
<path d="M118.922 109.649H99.3497C98.5247 109.649 97.856 108.98 97.856 108.155V88.5825C97.856 87.7575 98.5247 87.0887 99.3497 87.0887H118.922C119.747 87.0887 120.416 87.7575 120.416 88.5825V108.155C120.416 108.98 119.747 109.649 118.922 109.649Z" fill="white"/>
<path d="M117.168 97.1094C117.205 97.0406 117.247 96.9744 117.276 96.9037C117.315 96.8094 117.34 96.7119 117.366 96.6144C117.377 96.5725 117.395 96.5312 117.403 96.4887C117.43 96.3631 117.441 96.2362 117.445 96.1087C117.446 96.0937 117.45 96.0787 117.45 96.0644C117.461 95.4575 117.24 94.8469 116.776 94.3837C115.873 93.48 114.409 93.48 113.505 94.3837L107.655 100.234L104.768 97.3487C103.864 96.445 102.4 96.445 101.496 97.3487C101.033 97.8119 100.811 98.4231 100.823 99.03C100.823 99.0456 100.826 99.0612 100.827 99.0769C100.832 99.2037 100.843 99.33 100.869 99.4544C100.878 99.4975 100.895 99.5394 100.907 99.5825C100.933 99.6794 100.957 99.7762 100.996 99.87C101.026 99.9431 101.069 100.011 101.107 100.081C101.14 100.142 101.166 100.205 101.204 100.262C101.288 100.389 101.385 100.509 101.496 100.62L101.496 100.621L106.019 105.142C106.236 105.359 106.491 105.529 106.77 105.644C107.048 105.759 107.348 105.82 107.655 105.82C107.962 105.82 108.262 105.759 108.54 105.644C108.818 105.529 109.073 105.359 109.29 105.142L114.28 100.151L116.776 97.6556C116.781 97.65 116.785 97.6431 116.791 97.6375C116.895 97.5312 116.988 97.4181 117.068 97.2981C117.108 97.2369 117.135 97.1719 117.168 97.1094Z" fill="#D1D3D4"/>
<path d="M107.655 104.027C107.042 104.027 106.453 103.783 106.02 103.349L101.496 98.8269C100.593 97.9237 100.593 96.4594 101.496 95.5556C102.4 94.6519 103.864 94.6519 104.768 95.5556L107.655 98.4412L113.505 92.5906C114.409 91.6869 115.873 91.6869 116.776 92.5906C117.68 93.4937 117.68 94.9581 116.776 95.8619L109.291 103.349C108.857 103.782 108.27 104.027 107.655 104.027Z" fill="#1CAEE4"/>
<path d="M116.776 92.7444L109.291 100.231C108.857 100.665 108.269 100.909 107.655 100.909C107.042 100.909 106.453 100.665 106.019 100.231L101.496 95.7088C101.473 95.685 101.456 95.6569 101.434 95.6319C100.601 96.54 100.617 97.9475 101.496 98.8263L106.019 103.349C106.453 103.783 107.042 104.026 107.655 104.026C108.269 104.026 108.857 103.783 109.291 103.349L116.776 95.8619C117.656 94.9819 117.672 93.5744 116.839 92.6675C116.816 92.6919 116.8 92.7206 116.776 92.7444Z" fill="#009ADD"/>
<path d="M50.6507 109.649H31.0782C30.2532 109.649 29.5845 108.98 29.5845 108.155V88.5825C29.5845 87.7575 30.2532 87.0887 31.0782 87.0887H50.6507C51.4757 87.0887 52.1445 87.7575 52.1445 88.5825V108.155C52.1445 108.98 51.4757 109.649 50.6507 109.649Z" fill="white"/>
<path d="M48.8971 97.1094C48.9339 97.0406 48.9764 96.9744 49.0052 96.9037C49.0439 96.8094 49.0683 96.7119 49.0946 96.6144C49.1058 96.5725 49.1233 96.5312 49.1321 96.4887C49.1583 96.3631 49.1696 96.2362 49.1739 96.1087C49.1746 96.0937 49.1783 96.0787 49.1783 96.0644C49.1902 95.4575 48.9683 94.8469 48.5052 94.3837C47.6014 93.48 46.1377 93.48 45.2339 94.3837L39.3839 100.234L36.4964 97.3487C35.5927 96.445 34.1289 96.445 33.2252 97.3487C32.7621 97.8119 32.5402 98.4231 32.5514 99.03C32.5514 99.0456 32.5552 99.0612 32.5558 99.0769C32.5608 99.2037 32.5721 99.33 32.5977 99.4544C32.6064 99.4975 32.6239 99.5394 32.6358 99.5825C32.6621 99.6794 32.6858 99.7762 32.7246 99.87C32.7546 99.9431 32.7977 100.011 32.8358 100.081C32.8689 100.142 32.8946 100.205 32.9327 100.262C33.0164 100.389 33.1133 100.509 33.2246 100.62L33.2252 100.621L37.7477 105.142C37.9646 105.359 38.2202 105.529 38.4983 105.644C38.7764 105.759 39.0771 105.82 39.3833 105.82C39.6908 105.82 39.9908 105.759 40.2689 105.644C40.5471 105.529 40.8021 105.359 41.0189 105.142L46.0089 100.151L48.5046 97.6556C48.5102 97.65 48.5139 97.6431 48.5196 97.6375C48.6239 97.5312 48.7171 97.4181 48.7964 97.2981C48.8364 97.2369 48.8633 97.1719 48.8971 97.1094Z" fill="#D1D3D4"/>
<path d="M39.3834 104.027C38.7703 104.027 38.1816 103.783 37.7478 103.349L33.2247 98.8269C32.3209 97.9237 32.3209 96.4594 33.2247 95.5556C34.1284 94.6519 35.5922 94.6519 36.4959 95.5556L39.3834 98.4412L45.2334 92.5906C46.1372 91.6869 47.6009 91.6869 48.5047 92.5906C49.4084 93.4937 49.4084 94.9581 48.5047 95.8619L41.0191 103.349C40.5853 103.782 39.9984 104.027 39.3834 104.027Z" fill="#1CAEE4"/>
<path d="M48.5047 92.7444L41.0197 100.231C40.5859 100.665 39.9984 100.909 39.384 100.909C38.7709 100.909 38.1822 100.665 37.7484 100.231L33.2253 95.7088C33.2015 95.685 33.1853 95.6569 33.1628 95.6319C32.3297 96.54 32.3459 97.9475 33.2253 98.8263L37.7484 103.349C38.1822 103.783 38.7709 104.026 39.384 104.026C39.9984 104.026 40.5859 103.783 41.0197 103.349L48.5053 95.8619C49.3853 94.9819 49.4009 93.5744 48.5684 92.6675C48.5447 92.6919 48.5284 92.7206 48.5047 92.7444Z" fill="#009ADD"/>
</svg>
