<svg width="56" height="56" viewBox="0 0 56 56" fill="none" xmlns="http://www.w3.org/2000/svg">
<g clip-path="url(#clip0_148_52)">
<path d="M16.3333 42C13.7666 42 11.69 44.1 11.69 46.6667C11.69 49.2334 13.7666 51.3334 16.3333 51.3334C18.9 51.3334 21 49.2334 21 46.6667C21 44.1 18.9 42 16.3333 42ZM2.33331 4.66669V9.33335H6.99998L15.4 27.0434L12.25 32.76C11.8766 33.4134 11.6666 34.1834 11.6666 35C11.6666 37.5667 13.7666 39.6667 16.3333 39.6667H44.3333V35H17.3133C16.9866 35 16.73 34.7434 16.73 34.4167L16.8 34.1367L18.9 30.3334H36.2833C38.0333 30.3334 39.5733 29.3767 40.3666 27.93L48.72 12.7867C48.9066 12.46 49 12.0634 49 11.6667C49 10.3834 47.95 9.33335 46.6666 9.33335H12.1566L9.96331 4.66669H2.33331ZM39.6666 42C37.1 42 35.0233 44.1 35.0233 46.6667C35.0233 49.2334 37.1 51.3334 39.6666 51.3334C42.2333 51.3334 44.3333 49.2334 44.3333 46.6667C44.3333 44.1 42.2333 42 39.6666 42Z" fill="#E0E0E0"/>
</g>
<defs>
<clipPath id="clip0_148_52">
<rect width="56" height="56" fill="white"/>
</clipPath>
</defs>
</svg>
